<svg width="28" height="28" viewBox="0 0 28 28" fill="none" xmlns="http://www.w3.org/2000/svg">
<path d="M21.4551 2.77276C22.7358 2.77276 23.7147 3.10208 24.3643 3.75167C26.6667 6.05405 24.9851 12.8662 18.8908 18.9601C14.9714 22.8794 10.1438 25.412 6.59235 25.412C5.31083 25.412 4.3319 25.0827 3.6823 24.4331C1.37991 22.1308 3.06148 15.3186 9.15582 9.22474C13.0752 5.30536 17.9028 2.77276 21.4555 2.77276M21.4543 0.509033C17.414 0.509033 12.0938 3.08522 7.55483 7.62418C0.959725 14.2192 -1.49108 22.4621 2.08132 26.0345C3.1951 27.1483 4.76195 27.6766 6.59235 27.6766C10.6326 27.6766 15.9528 25.1004 20.4918 20.5614C27.0869 13.9664 29.5377 5.72349 25.9653 2.15112C24.8515 1.03734 23.2847 0.509033 21.4543 0.509033Z" fill="#32BBB9"/>
<path d="M6.66845 2.73596C10.2199 2.75611 15.0331 5.31585 18.9303 9.25743C24.9901 15.3858 26.633 22.207 24.3179 24.4967C23.6646 25.1426 22.6836 25.4661 21.4025 25.4591C17.8511 25.439 13.0378 22.8792 9.14064 18.9377C3.08083 12.8092 1.43792 5.98806 3.75305 3.69844C4.40635 3.05254 5.38733 2.72897 6.66886 2.73596M6.68078 0.471829C4.85121 0.461551 3.28065 0.981228 2.1607 2.08842C-1.43185 5.64065 0.972094 13.8967 7.5302 20.5292C12.0441 25.094 17.3491 27.6998 21.3893 27.7224C23.2189 27.7327 24.7895 27.213 25.9094 26.1058C29.502 22.5536 27.098 14.2976 20.5399 7.66509C16.026 3.10023 10.7211 0.494442 6.68078 0.471829Z" fill="#32BBB9"/>
<path d="M25.0457 28.0001C26.6086 28.0001 27.8756 26.7331 27.8756 25.1702C27.8756 23.6073 26.6086 22.3403 25.0457 22.3403C23.4828 22.3403 22.2158 23.6073 22.2158 25.1702C22.2158 26.7331 23.4828 28.0001 25.0457 28.0001Z" fill="#6E37FA"/>
<path d="M2.82988 5.65972C4.39278 5.65972 5.65976 4.39275 5.65976 2.82986C5.65976 1.26697 4.39278 0 2.82988 0C1.26698 0 0 1.26697 0 2.82986C0 4.39275 1.26698 5.65972 2.82988 5.65972Z" fill="#6E37FA"/>
<path d="M17.5611 13.6543L11.7816 10.3175C11.5152 10.1638 11.1826 10.3562 11.1826 10.6633V17.3369C11.1826 17.6444 11.5156 17.8364 11.7816 17.6826L17.5611 14.3458C17.8275 14.1921 17.8275 13.8081 17.5611 13.6543Z" fill="#6E37FA"/>
</svg>
